<?xml version="1.0" encoding="utf-8"?>
<!-- Generator: Adobe Illustrator 22.0.1, SVG Export Plug-In . SVG Version: 6.00 Build 0)  -->
<svg version="1.1" id="Layer_1" xmlns="http://www.w3.org/2000/svg" xmlns:xlink="http://www.w3.org/1999/xlink" x="0px" y="0px"
	 viewBox="0 0 1797 1110" style="enable-background:new 0 0 1797 1110;" xml:space="preserve">
<style type="text/css">
	.st0{fill:none;stroke:#24CCFD;}
</style>
<title>Group 7</title>
<g>
	<g>
		<path class="st0" d="M434,510.2h-16.8c0,0-414-33.2-414-504.7"/>
		<path class="st0" d="M425,514.5h-7.8c0,0-414-30.1-414-456.6"/>
		<path class="st0" d="M429,518.8h-11.8c0,0-414-26.9-414-408.5"/>
		<path class="st0" d="M439,523.2h-21.8c0,0-414-23.7-414-360.5"/>
		<path class="st0" d="M427,527.5h-9.8c0,0-414-20.6-414-312.4"/>
		<path class="st0" d="M433,531.8h-15.8c0,0-414-17.4-414-264.4"/>
		<path class="st0" d="M424,536.1h-6.8c0,0-414-14.2-414-216.3"/>
		<path class="st0" d="M428,540.4h-10.8c0,0-414-11.1-414-168.2"/>
		<path class="st0" d="M435,544.7h-17.8c0,0-414-7.9-414-120.2"/>
		<path class="st0" d="M425,549.1h-7.8c0,0-414-4.8-414-72.1"/>
		<path class="st0" d="M429,553.4h-11.8c0,0-414-1.6-414-24 M422,557.7h-4.8c0,0-414,1.6-414,24"/>
		<path class="st0" d="M432,562h-14.8c0,0-414,4.7-414,72.1"/>
		<path class="st0" d="M425,566.3h-7.8c0,0-414,7.9-414,120.2"/>
		<path class="st0" d="M436,570.7h-18.8c0,0-414,11.1-414,168.2"/>
		<path class="st0" d="M421,575h-3.8c0,0-414,14.2-414,216.3"/>
		<path class="st0" d="M425,579.3h-7.8c0,0-414,17.4-414,264.4"/>
		<path class="st0" d="M430,583.6h-12.8c0,0-414,20.6-414,312.4"/>
		<path class="st0" d="M422,587.9h-4.8c0,0-414,23.7-414,360.5"/>
		<path class="st0" d="M428,592.2h-10.8c0,0-414,26.9-414,408.5"/>
		<path class="st0" d="M432,596.6h-14.8c0,0-414,30.1-414,456.6"/>
		<path class="st0" d="M426,600.9h-8.8c0,0-414,33.2-414,504.7"/>
	</g>
	<g>
		<g>
			<path class="st0" d="M1363,510.2h16.8c0,0,414-33.2,414-504.7"/>
			<path class="st0" d="M1372,514.5h7.8c0,0,414-30.1,414-456.6"/>
			<path class="st0" d="M1368,518.8h11.8c0,0,414-26.9,414-408.5"/>
			<path class="st0" d="M1358,523.2h21.8c0,0,414-23.7,414-360.5"/>
			<path class="st0" d="M1370,527.5h9.8c0,0,414-20.6,414-312.4"/>
			<path class="st0" d="M1364,531.8h15.8c0,0,414-17.4,414-264.4"/>
			<path class="st0" d="M1373,536.1h6.8c0,0,414-14.2,414-216.3"/>
			<path class="st0" d="M1369,540.4h10.8c0,0,414-11.1,414-168.2"/>
			<path class="st0" d="M1362,544.7h17.8c0,0,414-7.9,414-120.2"/>
			<path class="st0" d="M1372,549.1h7.8c0,0,414-4.8,414-72.1"/>
			<path class="st0" d="M1368,553.4h11.8c0,0,414-1.6,414-24 M1375,557.7h4.8c0,0,414,1.6,414,24"/>
			<path class="st0" d="M1365,562h14.8c0,0,414,4.7,414,72.1"/>
			<path class="st0" d="M1372,566.3h7.8c0,0,414,7.9,414,120.2"/>
			<path class="st0" d="M1361,570.7h18.8c0,0,414,11.1,414,168.2"/>
			<path class="st0" d="M1376,575h3.8c0,0,414,14.2,414,216.3"/>
			<path class="st0" d="M1372,579.3h7.8c0,0,414,17.4,414,264.4"/>
			<path class="st0" d="M1367,583.6h12.8c0,0,414,20.6,414,312.4"/>
			<path class="st0" d="M1375,587.9h4.8c0,0,414,23.7,414,360.5"/>
			<path class="st0" d="M1369,592.2h10.8c0,0,414,26.9,414,408.5"/>
			<path class="st0" d="M1365,596.6h14.8c0,0,414,30.1,414,456.6"/>
			<path class="st0" d="M1371,600.9h8.8c0,0,414,33.2,414,504.7"/>
		</g>
	</g>
</g>
</svg>
