<?xml version="1.0"?>
<svg xmlns="http://www.w3.org/2000/svg" xmlns:xlink="http://www.w3.org/1999/xlink" version="1.1" viewBox="0 0 252 252" width="64px" height="64px"><g fill="none" fill-rule="nonzero" stroke="none" stroke-width="1" stroke-linecap="none" stroke-linejoin="miter" stroke-miterlimit="10" stroke-dasharray="" stroke-dashoffset="0" font-family="none" font-weight="none" font-size="none" text-anchor="none" style="mix-blend-mode: normal"><path d="M0,252v-252h252v252z" fill="none" stroke="none" stroke-linecap="butt"/><g><g id="surface1"><path d="M22.05,223.65c-6.93984,0 -12.6,-5.66015 -12.6,-12.6v-170.1c0,-6.93984 5.66016,-12.6 12.6,-12.6h207.9c6.93985,0 12.6,5.66016 12.6,12.6v170.1c0,6.93985 -5.66015,12.6 -12.6,12.6z" fill="#dff0fe" stroke="none" stroke-linecap="butt"/><path d="M229.95,31.5c5.21719,0 9.45,4.23281 9.45,9.45v170.1c0,5.21719 -4.23281,9.45 -9.45,9.45h-207.9c-5.21719,0 -9.45,-4.23281 -9.45,-9.45v-170.1c0,-5.21719 4.23281,-9.45 9.45,-9.45h207.9M229.95,25.2h-207.9c-8.71172,0 -15.75,7.03828 -15.75,15.75v170.1c0,8.71172 7.03828,15.75 15.75,15.75h207.9c8.71172,0 15.75,-7.03828 15.75,-15.75v-170.1c0,-8.71172 -7.03828,-15.75 -15.75,-15.75z" fill="#4582ec" stroke="none" stroke-linecap="butt"/><path d="M151.2,185.85c-33.00117,0 -59.85,-26.84883 -59.85,-59.85c0,-33.00117 26.84883,-59.85 59.85,-59.85c33.00117,0 59.85,26.84883 59.85,59.85c0,33.00117 -26.84883,59.85 -59.85,59.85z" fill="#98ccfd" stroke="none" stroke-linecap="butt"/><path d="M151.2,69.3c31.27852,0 56.7,25.42148 56.7,56.7c0,31.27852 -25.42148,56.7 -56.7,56.7c-31.27852,0 -56.7,-25.42148 -56.7,-56.7c0,-31.27852 25.42148,-56.7 56.7,-56.7M151.2,63c-34.79765,0 -63,28.20235 -63,63c0,34.79766 28.20235,63 63,63c34.79766,0 63,-28.20234 63,-63c0,-34.79765 -28.20234,-63 -63,-63z" fill="#4582ec" stroke="none" stroke-linecap="butt"/><path d="M185.85,126c0,19.1461 -15.5039,34.65 -34.65,34.65c-19.14609,0 -34.65,-15.5039 -34.65,-34.65c0,-19.14609 15.50391,-34.65 34.65,-34.65c19.1461,0 34.65,15.50391 34.65,34.65z" fill="#b6dcfe" stroke="none" stroke-linecap="butt"/><path d="M151.2,94.5c17.37422,0 31.5,14.12578 31.5,31.5c0,17.37422 -14.12578,31.5 -31.5,31.5c-17.37422,0 -31.5,-14.12578 -31.5,-31.5c0,-17.37422 14.12578,-31.5 31.5,-31.5M151.2,88.2c-20.86875,0 -37.8,16.93125 -37.8,37.8c0,20.86875 16.93125,37.8 37.8,37.8c20.86875,0 37.8,-16.93125 37.8,-37.8c0,-20.86875 -16.93125,-37.8 -37.8,-37.8z" fill="#4582ec" stroke="none" stroke-linecap="butt"/><path d="M44.1,173.25c-5.21719,0 -9.45,-4.23281 -9.45,-9.45v-75.6c0,-5.21719 4.23281,-9.45 9.45,-9.45c5.21719,0 9.45,4.23281 9.45,9.45v75.6c0,5.21719 -4.23281,9.45 -9.45,9.45z" fill="#ffffff" stroke="none" stroke-linecap="butt"/><path d="M44.1,81.9c3.46992,0 6.3,2.83008 6.3,6.3v75.6c0,3.46992 -2.83008,6.3 -6.3,6.3c-3.46992,0 -6.3,-2.83008 -6.3,-6.3v-75.6c0,-3.46992 2.83008,-6.3 6.3,-6.3M44.1,75.6c-6.96445,0 -12.6,5.63555 -12.6,12.6v75.6c0,6.96445 5.63555,12.6 12.6,12.6c6.96445,0 12.6,-5.63555 12.6,-12.6v-75.6c0,-6.96445 -5.63555,-12.6 -12.6,-12.6z" fill="#4582ec" stroke="none" stroke-linecap="butt"/><path d="M44.1,170.1c-3.46992,0 -6.3,-2.83008 -6.3,-6.3v-37.8h12.6v37.8c0,3.46992 -2.83008,6.3 -6.3,6.3z" fill="#b6dcfe" stroke="none" stroke-linecap="butt"/><path d="M131.11875,77.54414l-2.83008,-6.84141" fill="none" stroke="#4582ec" stroke-linecap="round"/><path d="M174.11133,181.29727l-2.83008,-6.84141" fill="none" stroke="#4582ec" stroke-linecap="round"/><path d="M199.65586,105.91875l6.84141,-2.83008" fill="none" stroke="#4582ec" stroke-linecap="round"/><path d="M95.90273,148.91133l6.84141,-2.83008" fill="none" stroke="#4582ec" stroke-linecap="round"/><path d="M171.28125,77.54414l2.83008,-6.84141" fill="none" stroke="#4582ec" stroke-linecap="round"/><path d="M128.28867,181.29727l2.83008,-6.84141" fill="none" stroke="#4582ec" stroke-linecap="round"/><path d="M199.65586,146.08125l6.84141,2.83008" fill="none" stroke="#4582ec" stroke-linecap="round"/><path d="M95.90273,103.08867l6.84141,2.83008" fill="none" stroke="#4582ec" stroke-linecap="round"/><path d="M201.6,220.5h18.9c3.46992,0 6.3,2.83008 6.3,6.3c0,3.46992 -2.83008,6.3 -6.3,6.3h-18.9c-3.46992,0 -6.3,-2.83008 -6.3,-6.3c0,-3.46992 2.83008,-6.3 6.3,-6.3z" fill="#4582ec" stroke="none" stroke-linecap="butt"/><path d="M31.5,220.5h18.9c3.46992,0 6.3,2.83008 6.3,6.3c0,3.46992 -2.83008,6.3 -6.3,6.3h-18.9c-3.46992,0 -6.3,-2.83008 -6.3,-6.3c0,-3.46992 2.83008,-6.3 6.3,-6.3z" fill="#4582ec" stroke="none" stroke-linecap="butt"/><path d="M239.4,94.5h-6.3c-3.46992,0 -6.3,-2.83008 -6.3,-6.3v-12.6c0,-3.46992 2.83008,-6.3 6.3,-6.3h6.3c3.46992,0 6.3,2.83008 6.3,6.3v12.6c0,3.46992 -2.83008,6.3 -6.3,6.3z" fill="#4582ec" stroke="none" stroke-linecap="butt"/><path d="M239.4,182.7h-6.3c-3.46992,0 -6.3,-2.83008 -6.3,-6.3v-12.6c0,-3.46992 2.83008,-6.3 6.3,-6.3h6.3c3.46992,0 6.3,2.83008 6.3,6.3v12.6c0,3.46992 -2.83008,6.3 -6.3,6.3z" fill="#4582ec" stroke="none" stroke-linecap="butt"/></g></g></g></svg>
